<svg width="300" height="210" viewBox="0 0 300 210" fill="none" xmlns="http://www.w3.org/2000/svg">
<g clip-path="url(#clip0_2_29649)">
<path d="M242.786 133.112C243.054 133.136 243.324 133.079 243.558 132.949C243.792 132.82 243.979 132.623 244.094 132.386C244.21 132.149 244.247 131.884 244.202 131.625C244.157 131.367 244.032 131.128 243.843 130.942C243.816 130.812 243.797 130.719 243.77 130.59C243.783 130.563 243.796 130.535 243.809 130.508C244.11 129.898 244.589 129.388 245.186 129.042C245.784 128.696 246.473 128.53 247.167 128.564C247.862 128.598 248.53 128.831 249.089 129.233C249.648 129.636 250.072 130.19 250.308 130.826C251.252 133.365 252.486 135.922 252.693 138.571C252.784 139.742 252.666 140.92 252.343 142.051C255.094 136.865 256.666 131.164 256.953 125.334C257.024 123.871 257.01 122.406 256.913 120.944C256.831 119.746 256.696 118.554 256.507 117.368C255.474 110.933 252.887 104.828 248.957 99.5541C246.989 98.3906 245.435 96.6679 244.504 94.6184C244.166 93.8816 243.94 93.101 243.833 92.3011C244.059 92.3405 244.29 92.3692 244.517 92.394C244.588 92.4008 244.662 92.4079 244.733 92.4147L244.76 92.4171C245.009 92.4394 245.261 92.3909 245.483 92.2775C245.705 92.1642 245.889 91.9907 246.012 91.7781C246.135 91.5655 246.193 91.3227 246.177 91.079C246.162 90.8354 246.075 90.6012 245.926 90.4047C245.833 90.2825 245.74 90.1603 245.647 90.0382C245.507 89.8497 245.362 89.6647 245.222 89.4763C245.205 89.4583 245.19 89.4393 245.176 89.4196C245.014 89.2047 244.852 88.9934 244.69 88.7785C245.026 88.3192 245.467 87.9416 245.978 87.6752C247.746 86.7721 250.089 87.5592 251.26 89.1308C252.435 90.7025 252.568 92.8389 252.045 94.7124C251.542 96.3039 250.764 97.8006 249.744 99.1382C249.832 99.2587 249.924 99.3758 250.012 99.4963C251.616 101.709 252.994 104.069 254.126 106.543C253.952 103.821 254.445 101.098 255.564 98.5971C256.688 96.2703 258.679 94.3579 260.445 92.3823C262.567 90.0094 266.625 91.2708 266.829 94.4099C266.831 94.4403 266.833 94.4706 266.835 94.501C266.58 94.6258 266.331 94.7592 266.086 94.9012C265.779 95.0815 265.534 95.348 265.385 95.6657C265.236 95.9835 265.189 96.3376 265.25 96.6818C265.312 97.026 265.478 97.3441 265.729 97.5945C265.979 97.8449 266.301 98.0159 266.653 98.0852L266.689 98.0923C266.559 98.9573 266.362 99.8115 266.099 100.647C265.341 102.98 264.097 105.135 262.443 106.978C260.789 108.82 258.762 110.311 256.488 111.355C256.339 111.421 256.194 111.487 256.045 111.55C257.132 115.061 257.746 118.695 257.87 122.361C257.937 124.523 257.823 126.686 257.531 128.831L257.546 128.755C258.138 126.383 259.554 124.282 261.554 122.808C264.523 120.652 268.604 119.993 271.776 118.296C272.114 118.106 272.501 118.014 272.89 118.03C273.28 118.047 273.657 118.172 273.976 118.39C274.295 118.608 274.543 118.911 274.692 119.262C274.84 119.613 274.882 119.998 274.813 120.371C274.807 120.398 274.802 120.424 274.796 120.451C274.328 120.612 273.87 120.802 273.426 121.019C273.171 121.143 272.922 121.277 272.677 121.419C272.37 121.599 272.125 121.866 271.976 122.183C271.827 122.501 271.78 122.855 271.841 123.199C271.903 123.544 272.069 123.862 272.32 124.112C272.57 124.363 272.892 124.534 273.244 124.603L273.28 124.61C273.306 124.615 273.328 124.619 273.354 124.624C272.481 126.414 271.298 128.044 269.856 129.444C268.077 131.136 265.961 132.457 263.639 133.325C261.317 134.194 258.836 134.592 256.35 134.495L256.347 134.494C255.535 137.316 254.425 140.048 253.033 142.647L242.614 142.175C242.582 142.061 242.554 141.943 242.526 141.829C243.487 141.931 244.458 141.919 245.417 141.792C244.688 140.834 243.959 139.869 243.23 138.911C243.214 138.893 243.199 138.874 243.185 138.854C242.815 138.364 242.442 137.877 242.072 137.387L242.072 137.387C242.12 135.938 242.36 134.501 242.786 133.112L242.786 133.112Z" fill="#F2F2F2"/>
<path d="M32.8442 45.4469C32.5781 45.4872 32.3057 45.4469 32.0639 45.3315C31.8221 45.2161 31.6226 45.0311 31.4924 44.8017C31.3622 44.5723 31.3077 44.3095 31.3362 44.0489C31.3647 43.7883 31.4748 43.5425 31.6516 43.3449C31.6703 43.214 31.6837 43.1201 31.7024 42.9893C31.6875 42.9628 31.6726 42.9364 31.6576 42.9099C31.3189 42.3192 30.8083 41.839 30.1901 41.5297C29.5718 41.2203 28.8733 41.0956 28.1825 41.1713C27.4916 41.2469 26.8391 41.5195 26.3069 41.9548C25.7748 42.3901 25.3867 42.9687 25.1914 43.6179C24.4106 46.2092 23.3412 48.8353 23.3026 51.4918C23.286 52.666 23.4789 53.8341 23.8728 54.9441C20.7982 49.933 18.867 44.3372 18.2101 38.5362C18.0468 37.0803 17.9673 35.6167 17.972 34.1522C17.9769 32.9515 18.036 31.7536 18.1494 30.5585C18.772 24.0733 20.9669 17.8243 24.5537 12.3246C26.4443 11.045 27.8862 9.23222 28.6852 7.13064C28.9753 6.37489 29.1514 5.58226 29.2081 4.77741C28.9847 4.83034 28.7562 4.8728 28.5311 4.91125C28.4609 4.92232 28.387 4.93381 28.3168 4.94491L28.2903 4.9489C28.0423 4.98615 27.7886 4.95287 27.5596 4.85307C27.3306 4.75327 27.1362 4.5912 26.9997 4.38638C26.8632 4.18156 26.7905 3.94272 26.7902 3.6986C26.79 3.45449 26.8623 3.21552 26.9984 3.01046C27.0832 2.88288 27.168 2.75536 27.253 2.62789C27.3814 2.43133 27.514 2.23801 27.6425 2.04148C27.6577 2.02248 27.6718 2.00265 27.6847 1.98209C27.8327 1.75786 27.981 1.53727 28.1289 1.31304C27.7641 0.874783 27.3002 0.524427 26.7734 0.289288C24.9509 -0.505769 22.6626 0.420625 21.5935 2.05959C20.5207 3.69892 20.5231 5.83926 21.1648 7.67769C21.768 9.23599 22.6394 10.683 23.7417 11.9568C23.6617 12.0824 23.5776 12.2047 23.4976 12.3303C22.0366 14.6351 20.8113 17.0738 19.8392 19.6112C19.8397 16.8837 19.1747 14.1951 17.8988 11.7666C16.6289 9.51178 14.521 7.72268 12.6323 5.85712C10.3637 3.61629 6.39346 5.11919 6.38954 8.26455C6.3895 8.295 6.38955 8.32544 6.38967 8.35585C6.65144 8.46513 6.90893 8.58328 7.16214 8.71029C7.48045 8.87179 7.74121 9.12309 7.91023 9.43124C8.07925 9.7394 8.14866 10.09 8.10936 10.4372C8.07006 10.7844 7.9239 11.112 7.69 11.377C7.45611 11.6419 7.1454 11.832 6.79859 11.9222L6.76308 11.9315C6.94763 12.7871 7.19875 13.6277 7.51428 14.4463C8.41862 16.7289 9.79786 18.8051 11.5655 20.5447C13.3332 22.2844 15.4512 23.6499 17.7867 24.5558C17.9397 24.6128 18.0891 24.6702 18.2417 24.7236C17.3792 28.2936 16.9974 31.9575 17.106 35.6233C17.1771 37.7853 17.4279 39.9381 17.8557 42.0607L17.8361 41.986C17.094 39.6538 15.5474 37.6423 13.4575 36.2912C10.3573 34.3177 6.24295 33.9056 2.9683 32.4022C2.61922 32.2329 2.22766 32.1642 1.8398 32.2043C1.45194 32.2445 1.08396 32.3917 0.779264 32.6286C0.474566 32.8655 0.245857 33.1823 0.120113 33.5415C-0.00563062 33.9008 -0.023166 34.2875 0.0695773 34.6561C0.0766664 34.6823 0.0838298 34.7085 0.0910619 34.7346C0.56902 34.8675 1.038 35.0293 1.49528 35.219C1.75705 35.3283 2.01454 35.4465 2.26775 35.5734C2.58606 35.7349 2.84682 35.9862 3.01584 36.2944C3.18486 36.6025 3.25427 36.9532 3.21497 37.3004C3.17567 37.6476 3.0295 37.9751 2.79561 38.2401C2.56172 38.5051 2.25101 38.6952 1.9042 38.7854L1.86866 38.7946C1.84305 38.801 1.82115 38.807 1.79558 38.8134C2.78069 40.5474 4.06522 42.1034 5.59289 43.4134C7.47604 44.9955 9.67148 46.1867 12.0446 46.914C14.4177 47.6412 16.9185 47.8892 19.3936 47.6427L19.3973 47.6423C20.3861 50.41 21.6678 53.0703 23.2218 55.5802L33.5914 54.4828C33.6161 54.3667 33.6366 54.2475 33.6575 54.1318C32.7042 54.2921 31.7344 54.3383 30.7696 54.2692C31.4363 53.2692 32.1021 52.262 32.7688 51.2621C32.7841 51.2431 32.7982 51.2233 32.8111 51.2027C33.1488 50.6913 33.4906 50.1831 33.8283 49.6717L33.8284 49.6711C33.6881 48.2279 33.3575 46.8082 32.8446 45.4471L32.8442 45.4469Z" fill="#F2F2F2"/>
<path d="M176.109 41.708C176.622 41.8454 177.099 42.0906 177.504 42.4264C177.909 42.7622 178.234 43.1803 178.455 43.6514C178.676 44.1225 178.789 44.6351 178.784 45.153C178.78 45.6709 178.659 46.1816 178.43 46.6491L183.995 52.6686L181.06 56.8509L173.324 48.2429C172.542 47.8163 171.949 47.1255 171.656 46.3015C171.362 45.4774 171.39 44.5774 171.733 43.7718C172.077 42.9663 172.712 42.3113 173.518 41.9309C174.325 41.5505 175.247 41.4712 176.109 41.708V41.708Z" fill="#A0616A"/>
<path d="M228.204 56.4888C227.703 55.6943 227.045 55.0041 226.268 54.4576C225.492 53.9111 224.612 53.5191 223.68 53.3041C222.747 53.0891 221.78 53.0553 220.834 53.2047C219.888 53.3541 218.982 53.6837 218.167 54.1746L199.867 65.2027L180.126 48.8757L175.214 53.3251L197.022 80.8551L225.366 66.4783C224.705 66.8138 229.003 57.7546 228.204 56.4888Z" fill="#CCCCCC"/>
<path d="M191.95 93.1577C191.952 101.952 190.173 110.66 186.715 118.785C183.257 126.91 178.188 134.293 171.796 140.511C165.405 146.73 157.818 151.662 149.467 155.026C141.116 158.391 132.166 160.122 123.128 160.12C85.1185 160.12 54.3052 130.139 54.3052 93.1577C54.2987 85.9642 55.4839 78.8167 57.8152 71.9902C62.3923 58.658 71.1611 47.0632 82.8815 38.8452C94.6019 30.6273 108.681 26.2021 123.128 26.1954C135.587 26.1912 147.814 29.479 158.503 35.708C169.191 41.9369 177.941 50.8731 183.818 61.5626C185.275 64.2 186.546 66.9307 187.622 69.7358C187.771 70.1264 187.916 70.5169 188.058 70.9113V70.915C188.689 72.6486 189.244 74.4144 189.725 76.2125C191.207 81.7453 191.955 87.44 191.95 93.1577V93.1577Z" fill="#3F3D56"/>
<path d="M115.598 47.979C112.505 46.3517 109.071 45.4331 105.558 45.2932C102.045 45.1534 98.5451 45.796 95.3259 47.1721C92.4915 48.3722 89.5071 50.5252 88.5615 54.4132C92.3857 52.2173 97.336 55.6868 98.32 61.2526L98.0903 61.3142C97.5706 65.1693 98.7308 69.3664 100.977 71.7569C101.272 69.2739 102.95 67.584 104.6 66.5284C106.251 65.4728 108.077 64.7059 109.336 62.8914C110.83 60.7403 111.209 57.5965 111.802 54.7286C112.396 51.8607 113.521 48.7782 115.598 47.979Z" fill="white"/>
<path d="M94.1916 80.7845C93.1325 82.3321 91.7178 83.3031 90.4485 84.5121C89.1829 85.7249 87.9785 87.3617 87.7262 89.4636C87.5656 90.8103 87.8141 92.1793 87.7796 93.5409C87.7453 94.9024 87.2788 96.4351 86.3268 96.7737C84.8241 97.3019 83.6771 94.5862 82.1324 94.3965C80.9051 94.2477 79.8001 96.1264 80.1557 97.7558C80.5113 99.3852 82.1821 100.107 83.1418 99.0429C84.0098 100.46 83.398 103.031 82.0942 103.466C81.9565 104.359 81.8189 105.248 81.6851 106.141C78.3892 103.898 75.059 101.617 72.2564 98.3324C69.1395 94.71 67.2062 90.264 66.7047 85.5649C66.3415 81.789 66.8806 77.4699 65.0989 74.5645C63.6727 72.2394 61.2257 71.726 59.0234 71.8711C58.6219 71.8972 58.2167 71.9418 57.8152 71.9902C59.114 68.1947 60.7635 64.5216 62.7436 61.0158C63.1917 60.8286 63.6081 60.5765 63.9786 60.268C66.028 58.5754 66.938 55.1491 68.6012 52.7794C68.7082 52.6269 68.8191 52.4781 68.9338 52.333C70.6353 50.1716 72.9141 49.0593 75.1164 48.0251C79.9913 45.7223 85.0076 43.3898 90.1541 43.7097L88.6897 43.8474C86.9806 48.505 85.2702 53.1626 83.5586 57.8202C83.2986 58.5344 83.036 59.2499 82.771 59.9667C81.7998 62.6154 80.798 65.4353 80.9472 68.4002C81.0351 70.1561 81.6621 72.0311 82.8551 72.6337C83.9677 73.1917 85.1835 72.5073 86.2579 71.8302C86.7129 71.5474 87.1641 71.2647 87.6191 70.9782C89.2517 69.9552 91.0602 68.9061 92.7846 69.5906C94.3637 70.2156 95.5298 72.3026 95.7516 74.5533C95.9549 76.7412 95.4063 78.9328 94.1916 80.7845V80.7845Z" fill="white"/>
<path d="M103.902 112.583C99.1334 109.727 94.3652 106.87 89.5969 104.014L89.6779 103.811C86.7132 104.909 85.4823 110.037 85.9723 114.23C86.4622 118.423 88.1236 122.172 88.9628 126.257C90.0945 131.848 89.6674 137.632 87.7258 143.009C93.9958 136.164 99.5446 128.724 104.289 120.802C104.952 119.803 105.457 118.714 105.787 117.57C106.09 116.352 106.044 114.888 105.437 113.912C105.047 113.352 104.519 112.895 103.902 112.583V112.583Z" fill="white"/>
<path d="M85.083 60.6147C84.5767 61.7223 84.3819 63.1993 84.8414 64.3454C85.3106 65.5158 86.3026 66.0448 87.2159 66.4852L89.8506 67.7559C90.7271 68.1786 91.6719 68.6055 92.5654 68.2577C93.6431 67.8383 94.3904 66.1944 94.1971 64.6682C93.9913 63.0442 92.9392 61.9271 91.9662 60.9758C90.6045 59.6446 89.2428 58.3133 87.8811 56.9821L87.1137 57.8966C86.2837 58.6844 85.597 59.6034 85.083 60.6147V60.6147Z" fill="white"/>
<path d="M177.826 77.9758C179.011 78.2474 180.197 78.519 181.382 78.7905C181.175 82.6855 179.191 86.2904 176.53 87.5961C175.421 88.1392 174.186 88.3401 173.269 89.3557C172.439 90.2783 172.018 91.7142 171.632 93.087C170.955 95.4828 170.279 97.8785 169.602 100.274C168.875 102.856 167.943 105.724 166.054 106.654C164.433 107.454 162.578 106.476 161.332 104.835C160.085 103.195 159.324 100.989 158.586 98.8383C158.632 101.182 157.512 103.481 155.925 104.296C154.335 105.11 152.4 104.374 151.337 102.555C150.573 101.249 150.255 99.5265 149.506 98.2022C148.756 96.8778 147.185 96.1189 146.367 97.3614C145.828 98.1873 145.896 99.4521 145.629 100.501C145.212 102.131 143.95 103.154 142.7 103.243C141.454 103.332 140.238 102.633 139.194 101.684C137.041 99.72 135.455 96.6025 134.839 93.1391C134.568 91.5952 134.491 89.9137 134.961 88.4666C135.432 87.0195 136.567 85.9034 137.695 86.1787C138.437 84.6534 136.972 82.6297 135.653 82.8083C134.33 82.9868 133.294 84.367 132.208 85.4273C131.126 86.4875 129.612 87.2575 128.523 86.2047C128.53 87.1831 127.712 87.8304 127.005 87.7486C126.301 87.6705 125.674 87.1199 125.028 86.7293C122.531 85.2152 119.362 86.2196 117.587 89.0841C118.696 84.4935 120.321 79.2258 123.728 78.1469C125.12 77.7042 126.638 78.0688 127.953 77.3024C130.281 75.9446 130.752 70.8146 128.741 68.6978C128.997 70.6992 128.947 73.0355 127.861 74.4045C126.775 75.7735 124.496 74.8806 124.634 72.8569C124.321 74.2519 122.761 74.464 122.042 73.3926C121.319 72.3212 121.38 70.569 121.893 69.2893C122.405 68.0095 123.277 67.0907 124.122 66.209C125.938 64.3155 127.781 62.3996 129.884 61.2091C131.99 60.0187 134.422 59.617 136.533 60.8C137.645 61.4249 138.624 62.4666 139.76 63.0172C140.895 63.5714 142.337 63.5008 143.09 62.2062C143.935 60.7627 143.537 58.6199 143.851 56.8157C144.413 53.6276 147.69 52.1358 149.506 54.2413C148.148 53.9028 146.745 55.4653 146.577 57.3589C146.405 59.2524 147.388 61.1645 148.703 61.7375C150.913 62.6898 153.077 60.294 154.748 58.0768C156.491 55.7555 158.237 53.4353 159.986 51.1165C160.265 50.7217 160.578 50.3508 160.923 50.0079C161.47 49.4885 162.2 49.1911 162.965 49.1759C163.73 49.1607 164.472 49.4289 165.041 49.926C166.807 51.3285 167.637 54.2042 169.086 56.1833C171.189 59.0589 174.335 59.7583 177.264 60.3163C179.447 60.7293 181.632 61.1447 183.818 61.5626C185.275 64.1999 186.546 66.9306 187.622 69.7357C183.921 71.2647 180.506 74.1255 177.826 77.9758Z" fill="white"/>
<path d="M184.884 122.736C183.246 125.973 181.341 129.074 179.187 132.011C177.811 131.438 176.331 132.461 175.043 133.421C173.697 134.425 172.079 135.403 170.699 134.488C169.288 133.551 168.833 130.928 169.281 128.849C169.728 126.773 170.844 125.121 171.927 123.551C173.074 121.885 174.301 120.155 175.895 119.507C177.494 118.86 179.547 119.775 180.013 121.985L181.145 121.948C180.51 121.1 180.843 119.344 181.696 119.035C182.678 118.674 183.531 119.987 184.112 121.148C184.372 121.672 184.636 122.201 184.884 122.736Z" fill="white"/>
<path d="M141.539 107.023C139.107 107.172 137.18 104.258 135.899 101.392C134.619 98.5251 133.451 95.2471 131.256 93.7881C130.001 92.9544 128.572 92.84 127.211 92.436C125.851 92.032 124.427 91.1961 123.777 89.4938L122.234 88.8872C120.196 90.0022 118.131 91.1374 116.375 92.9518C114.405 94.9874 113.179 97.5967 112.884 100.378C112.589 103.383 113.677 106.734 115.711 107.863C117.318 108.755 119.19 108.193 120.817 109.009C122.851 110.03 124.059 112.993 124.516 115.92C124.973 118.846 124.857 121.888 125.184 124.847C125.511 127.807 126.413 130.886 128.278 132.403C130.612 134.301 134.037 132.724 135.084 129.269C135.598 127.574 135.58 125.662 135.964 123.903C136.641 120.805 138.466 118.506 139.914 115.965C141.363 113.424 142.502 109.972 141.539 107.023Z" fill="white"/>
<path d="M117.501 76.5806C117.728 76.7838 117.94 77.0024 118.135 77.2349C118.337 77.5733 118.44 77.9589 118.433 78.3501C118.426 78.7413 118.309 79.1232 118.096 79.4548C118.389 79.4385 118.675 79.3633 118.937 79.234C119.199 79.1046 119.43 78.9238 119.616 78.7031C120.06 78.2111 120.451 77.6758 120.782 77.1057C121.03 76.7121 121.294 76.1798 121.125 75.7123C121.01 75.3932 120.738 75.2571 120.548 75.0171C120.246 74.6367 120.171 74.0325 120.015 73.5105C119.677 72.3829 118.869 71.5537 117.991 71.4352L118.113 71.4579C117.746 71.5801 117.49 72.1466 117.571 72.6564C117.645 73.1206 117.952 73.506 117.921 73.9795C117.877 74.6603 117.178 74.9798 117.135 75.6607C117.128 76.0023 117.26 76.3327 117.501 76.5806V76.5806Z" fill="white"/>
<path d="M113.334 65.0109C113.337 65.0099 113.341 65.0097 113.344 65.0088C113.419 64.9425 113.489 64.8705 113.552 64.7937L113.334 65.0109Z" fill="#E6E6E6"/>
<path d="M114.063 68.2066C114.601 67.8701 114.901 66.9394 114.723 66.1605C114.547 65.3863 113.921 64.8658 113.344 65.0088C113.177 65.1739 112.969 65.2949 112.741 65.3604C112.512 65.4258 112.27 65.4337 112.037 65.3832C111.681 65.2938 111.289 65.0638 110.98 65.3252C110.803 65.5205 110.679 65.7558 110.62 66.0096C110.505 66.3516 110.391 66.6936 110.276 67.0355C110.222 67.1579 110.208 67.2937 110.236 67.4243C110.257 67.4766 110.293 67.5225 110.338 67.5577C110.384 67.5929 110.438 67.6161 110.495 67.625C111.182 67.8221 111.869 68.0192 112.556 68.2162C113.057 68.3598 113.597 68.4981 114.063 68.2066Z" fill="white"/>
<path d="M165.925 112.327C165.608 111.821 165.29 111.315 164.973 110.809C164.661 110.224 164.234 109.703 163.717 109.276C163.603 109.183 163.472 109.113 163.33 109.071C163.188 109.029 163.039 109.014 162.892 109.028C162.744 109.043 162.601 109.086 162.471 109.155C162.341 109.224 162.226 109.317 162.134 109.43L162.172 109.719C162.896 110.603 163.662 111.584 163.845 112.896C163.918 113.412 163.893 113.948 163.956 114.467C164.02 114.986 164.2 115.524 164.545 115.748C165.045 116.073 165.632 115.594 165.988 115.009C166.306 114.529 166.448 113.959 166.393 113.39C166.313 113.008 166.154 112.646 165.925 112.327V112.327Z" fill="white"/>
<path d="M180.058 93.0076C180.15 92.4216 180.242 91.8356 180.334 91.2496C180.483 90.606 180.501 89.9403 180.388 89.2897C180.363 89.1476 180.308 89.0119 180.228 88.8906C180.148 88.7694 180.043 88.6649 179.921 88.5835C179.798 88.5021 179.66 88.4453 179.515 88.4164C179.37 88.3876 179.22 88.3873 179.075 88.4156L178.913 88.6609C178.882 89.7904 178.818 91.0211 178.091 92.1395C177.804 92.5803 177.431 92.9739 177.136 93.4109C176.841 93.8479 176.622 94.3729 176.738 94.76C176.905 95.322 177.671 95.3232 178.331 95.0988C178.892 94.9307 179.379 94.5836 179.713 94.1136C179.905 93.7719 180.022 93.3954 180.058 93.0076V93.0076Z" fill="#E6E6E6"/>
<path d="M170.907 112.985C171.062 112.551 170.838 112.053 170.791 111.573C170.768 110.953 170.937 110.341 171.276 109.815C171.612 109.32 171.867 108.776 172.031 108.204C172.1 107.943 172.088 107.668 171.995 107.414C171.89 107.185 171.635 107.08 171.489 107.262L171.802 107.458C171.38 107.384 170.946 107.405 170.533 107.517C170.298 107.605 170.088 107.747 169.92 107.93C169.753 108.114 169.633 108.334 169.572 108.572C169.52 108.943 169.436 109.309 169.32 109.665C169.134 110.038 168.773 110.162 168.546 110.49C168.391 110.78 168.313 111.103 168.319 111.429C168.324 111.756 168.413 112.076 168.578 112.361C168.863 112.827 169.315 113.174 169.848 113.333C170.23 113.466 170.732 113.473 170.907 112.985Z" fill="white"/>
<path d="M179.778 115.59C179.916 115.939 180.101 116.269 180.328 116.571C180.753 116.987 181.33 116.732 181.845 116.63C182.313 116.559 182.791 116.611 183.231 116.783C183.67 116.954 184.053 117.238 184.34 117.604C184.141 116.635 183.705 115.726 183.069 114.954C182.433 114.183 181.616 113.571 180.687 113.17C179.473 112.688 178.194 112.642 176.93 112.598L176.712 112.653C177.268 114.227 179.014 114.192 179.778 115.59Z" fill="white"/>
<path d="M142.205 118.81L142.208 118.817C142.229 118.777 142.25 118.738 142.271 118.698L142.205 118.81Z" fill="#E6E6E6"/>
<path d="M140.859 121.345C140.565 121.863 140.313 122.403 140.104 122.959C139.827 123.859 139.644 124.784 139.557 125.72C139.488 126.252 139.467 126.932 139.81 127.191C139.908 127.254 140.027 127.281 140.144 127.266C140.261 127.25 140.368 127.194 140.446 127.107C140.636 126.911 140.792 126.686 140.907 126.44C141.58 125.312 142.103 124.104 142.463 122.847C142.791 121.523 142.788 119.964 142.208 118.817C141.758 119.66 141.309 120.502 140.859 121.345Z" fill="white"/>
<path d="M127.876 53.8185C128.09 54.0218 128.36 54.1598 128.653 54.2155C128.947 54.2713 129.25 54.2422 129.527 54.1321C130.1 53.8884 130.625 53.5506 131.081 53.1335C131.458 52.8621 131.777 52.5227 132.023 52.1338C132.158 51.9014 132.244 51.6453 132.277 51.3803C132.31 51.1152 132.289 50.8464 132.215 50.5893C132.002 49.9838 131.463 49.7809 130.986 49.6435C130.224 49.4234 129.461 49.2034 128.699 48.9834L129.25 48.4997C128.683 48.2034 128.055 48.7534 127.7 49.4343C127.473 49.8789 127.314 50.3538 127.23 50.8436C127.04 51.9124 127.225 53.1851 127.876 53.8185Z" fill="#E6E6E6"/>
<path d="M141.338 49.4212C141.553 49.6518 141.85 49.7941 142.169 49.8193C142.488 49.8446 142.804 49.7508 143.055 49.5571C143.27 49.3996 143.449 49.1997 143.58 48.9705C143.711 48.7412 143.791 48.4876 143.814 48.2264C143.868 47.6428 143.572 46.9942 143.148 46.9438L143.245 46.3974C142.429 46.254 141.425 46.2253 140.988 47.1894C140.84 47.5587 140.795 47.9592 140.856 48.3508C140.918 48.7425 141.084 49.1116 141.338 49.4212Z" fill="#E6E6E6"/>
<path d="M139.54 20.3652C134.756 19.8402 129.954 21.1856 126.19 24.1053C122.427 27.0251 120.009 31.2801 119.469 35.9342C118.346 45.626 123.593 66.6719 133.161 75.3841C137.666 58.6923 153.452 48.7917 155.541 39.8932C157.773 30.3848 149.501 21.4584 139.54 20.3652Z" fill="#00BFA6"/>
<path d="M136.231 41.911C139.501 41.911 142.151 39.3324 142.151 36.1516C142.151 32.9707 139.501 30.3921 136.231 30.3921C132.962 30.3921 130.312 32.9707 130.312 36.1516C130.312 39.3324 132.962 41.911 136.231 41.911Z" fill="white"/>
<path d="M130.007 83.6884C132.149 83.6884 133.884 81.9995 133.884 79.9161C133.884 77.8327 132.149 76.1438 130.007 76.1438C127.866 76.1438 126.13 77.8327 126.13 79.9161C126.13 81.9995 127.866 83.6884 130.007 83.6884Z" fill="#00BFA6"/>
<path opacity="0.2" d="M141.129 32.0252C141.795 32.4148 142.376 32.9282 142.839 33.5362C143.301 34.1442 143.636 34.8348 143.824 35.5687C144.012 36.3026 144.05 37.0653 143.935 37.8133C143.82 38.5613 143.554 39.28 143.154 39.9283C142.754 40.5765 142.226 41.1418 141.601 41.5916C140.976 42.0415 140.266 42.3672 139.512 42.5502C137.989 42.9197 136.377 42.6852 135.032 41.8985C136.404 42.1955 137.839 42.0077 139.082 41.3687C140.325 40.7297 141.293 39.6813 141.814 38.4111C142.335 37.1409 142.374 35.7318 141.925 34.436C141.475 33.1402 140.566 32.0424 139.361 31.339C139.985 31.4734 140.582 31.7052 141.129 32.0252V32.0252Z" fill="#231F20"/>
<path opacity="0.2" d="M155.564 39.9118C153.476 48.8103 137.689 58.7109 133.184 75.4027C132.284 74.5755 131.449 73.6847 130.684 72.7375C135.746 57.0477 150.55 47.514 152.568 38.9165C154.375 31.2215 149.301 23.9084 142.02 20.8192C150.833 22.9747 157.61 31.1982 155.564 39.9118Z" fill="#231F20"/>
<path d="M84.0686 42.8377C80.4764 42.4434 76.8704 43.4537 74.0438 45.6464C71.2172 47.839 69.4016 51.0344 68.9964 54.5295C68.1526 61.8076 72.0935 77.6125 79.2785 84.155C82.6616 71.62 94.5166 64.185 96.0852 57.5025C97.7613 50.362 91.549 43.6587 84.0686 42.8377Z" fill="#00BFA6"/>
<path d="M81.5842 59.0178C84.0393 59.0178 86.0295 57.0814 86.0295 54.6927C86.0295 52.304 84.0393 50.3676 81.5842 50.3676C79.1292 50.3676 77.1389 52.304 77.1389 54.6927C77.1389 57.0814 79.1292 59.0178 81.5842 59.0178Z" fill="white"/>
<path d="M76.9102 90.3912C78.5182 90.3912 79.8218 89.1229 79.8218 87.5584C79.8218 85.9938 78.5182 84.7255 76.9102 84.7255C75.3022 84.7255 73.9986 85.9938 73.9986 87.5584C73.9986 89.1229 75.3022 90.3912 76.9102 90.3912Z" fill="#00BFA6"/>
<path opacity="0.2" d="M85.2623 51.5939C85.7626 51.8865 86.1989 52.2721 86.5461 52.7286C86.8933 53.1852 87.1447 53.7039 87.2859 54.255C87.4271 54.8061 87.4554 55.3788 87.3691 55.9406C87.2828 56.5023 87.0836 57.042 86.7829 57.5289C86.4823 58.0157 86.086 58.4402 85.6167 58.778C85.1475 59.1158 84.6144 59.3604 84.048 59.4978C83.4816 59.6352 82.8929 59.6627 82.3156 59.5787C81.7382 59.4948 81.1835 59.301 80.6832 59.0084C81.7135 59.2314 82.7918 59.0904 83.725 58.6106C84.6582 58.1307 85.3854 57.3434 85.7765 56.3895C86.1676 55.4356 86.1971 54.3774 85.8596 53.4044C85.5221 52.4313 84.8397 51.6068 83.9345 51.0786C84.4028 51.1796 84.8512 51.3536 85.2623 51.5939Z" fill="#231F20"/>
<path opacity="0.2" d="M96.1026 57.5165C94.534 64.199 82.679 71.634 79.296 84.169C78.6202 83.5478 77.9926 82.8788 77.4183 82.1675C81.2199 70.385 92.337 63.2255 93.8526 56.7691C95.2091 50.9904 91.3987 45.4985 85.9313 43.1786C92.5496 44.7973 97.6386 50.9729 96.1026 57.5165Z" fill="#231F20"/>
<path d="M223.241 199.518H218.36L216.038 181.201L223.242 181.201L223.241 199.518Z" fill="#A0616A"/>
<path d="M225.867 208.535H222.403L221.785 205.354L220.202 208.535H211.016C210.576 208.535 210.147 208.398 209.793 208.144C209.438 207.89 209.176 207.533 209.045 207.124C208.914 206.715 208.921 206.276 209.064 205.871C209.208 205.466 209.481 205.116 209.843 204.873L217.178 199.944V196.727L224.894 197.176L225.867 208.535Z" fill="#2F2E41"/>
<path d="M204.336 199.518H199.456L197.134 181.201L204.338 181.201L204.336 199.518Z" fill="#A0616A"/>
<path d="M206.962 208.535H203.499L202.881 205.354L201.297 208.535H192.112C191.672 208.535 191.243 208.398 190.888 208.144C190.534 207.89 190.272 207.533 190.141 207.124C190.009 206.715 190.016 206.276 190.16 205.871C190.303 205.466 190.576 205.116 190.939 204.873L198.274 199.944V196.727L205.989 197.176L206.962 208.535Z" fill="#2F2E41"/>
<path d="M185.794 151.157C186.728 152.52 196.889 189.993 196.889 189.993L205.899 190.993L204.829 181.564L203.195 164.879L200.664 153.742C200.664 153.742 209.602 133.949 210.167 132.373L210.569 131.241L213.362 155.901C213.693 156.781 213.838 157.718 213.787 158.654C213.702 160.195 215.29 183.368 215.29 183.368L216.054 191.679L223.773 192.722L226.905 178.343C229.52 173.672 228.021 157.073 226.951 155.528C225.882 153.983 226.307 143.223 226.307 143.223C227.673 142.756 235.816 115.737 231.743 115.897C232.004 114.456 232.21 113.17 232.21 113.17L225.139 107.622L207.445 103.147L202.98 101.061C202.98 101.061 195.007 115.406 195.086 116.119C195.196 117.023 194.984 117.936 194.484 118.705L186.434 144.918C186.434 144.918 184.851 149.78 185.794 151.157Z" fill="#2F2E41"/>
<path d="M230.25 57.3551L227.434 51.5399L217.853 51.8981L214.728 57.948C214.728 57.948 205.797 68.3271 205.508 71.702C205.144 75.9467 208.166 96.7498 205.144 95.4013C205.144 95.4013 198.021 103.537 202.236 103.537C206.451 103.537 225.519 115.183 226.77 116.493C228.021 117.802 233.606 118.651 233.138 115.917C232.669 113.183 230.25 98.396 230.25 98.396L236.8 75.1448C238.685 70.1249 239.272 64.4941 235.01 61.1221L230.25 57.3551Z" fill="#CCCCCC"/>
<path d="M194.76 40.2393C193.479 39.7444 192.11 39.4998 190.731 39.5197C189.352 39.5396 187.991 39.8235 186.725 40.3552C185.459 40.8869 184.314 41.656 183.353 42.6186C182.393 43.5811 181.637 44.7183 181.128 45.9652C178.989 51.2092 178.634 63.732 182.615 70.0083C187.734 61.3565 198.091 58.1619 200.645 53.5033C203.375 48.5254 200.15 42.3209 194.76 40.2393Z" fill="#00BFA6"/>
<path d="M190.451 51.8942C192.342 51.8942 193.875 50.4025 193.875 48.5625C193.875 46.7225 192.342 45.2308 190.451 45.2308C188.559 45.2308 187.026 46.7225 187.026 48.5625C187.026 50.4025 188.559 51.8942 190.451 51.8942Z" fill="white"/>
<path d="M180.148 74.2544C181.386 74.2544 182.39 73.2774 182.39 72.0722C182.39 70.867 181.386 69.89 180.148 69.89C178.909 69.89 177.905 70.867 177.905 72.0722C177.905 73.2774 178.909 74.2544 180.148 74.2544Z" fill="#00BFA6"/>
<path opacity="0.2" d="M193.828 46.9826C194.456 47.6208 194.797 48.4751 194.777 49.3579C194.757 50.2407 194.378 51.0798 193.723 51.6908C193.068 52.3018 192.19 52.6347 191.283 52.6164C190.375 52.5981 189.513 52.2301 188.884 51.5932C189.604 51.9616 190.434 52.0688 191.228 51.8957C192.021 51.7226 192.725 51.2804 193.214 50.6483C193.703 50.0162 193.945 49.2355 193.896 48.4458C193.847 47.6562 193.511 46.9091 192.948 46.3384C193.275 46.5056 193.573 46.7231 193.828 46.9826Z" fill="#231F20"/>
<path opacity="0.2" d="M200.655 53.5171C198.101 58.1757 187.744 61.3703 182.625 70.0221C182.252 69.4275 181.925 68.8068 181.645 68.1651C186.919 60.1549 196.67 57.02 199.138 52.5189C201.347 48.4904 199.656 43.6589 196.074 40.8591C200.657 43.3641 203.157 48.9554 200.655 53.5171Z" fill="#231F20"/>
<path d="M179.137 71.3208C179.658 71.2163 180.197 71.2242 180.715 71.3441C181.233 71.4639 181.717 71.6928 182.134 72.0146C182.552 72.3364 182.891 72.7433 183.129 73.2066C183.367 73.6699 183.498 74.1783 183.512 74.696L191.28 77.5974L190.62 82.6206L179.708 78.3735C178.813 78.3391 177.961 77.9863 177.315 77.3819C176.669 76.7775 176.274 75.9635 176.203 75.0941C176.133 74.2248 176.392 73.3605 176.933 72.6651C177.474 71.9696 178.258 71.4913 179.137 71.3208L179.137 71.3208Z" fill="#A0616A"/>
<path d="M233.417 60.9692C232.599 60.4834 231.69 60.1594 230.743 60.016C229.797 59.8725 228.83 59.9123 227.899 60.1331C226.968 60.3539 226.091 60.7514 225.318 61.3027C224.545 61.8541 223.892 62.5484 223.395 63.346L212.245 81.2617L187.034 75.4473L184.737 81.5824L217.022 96.462L233.374 71.1224C235.822 67.775 237.021 63.11 233.417 60.9692Z" fill="#CCCCCC"/>
<path d="M233.833 39.013C233.834 40.7398 233.399 42.4403 232.566 43.9652C231.734 45.4902 230.529 46.7931 229.058 47.7594C227.588 48.7257 225.896 49.326 224.131 49.5075C222.366 49.689 220.582 49.4462 218.936 48.8004C217.29 48.1546 215.832 47.1256 214.691 45.8036C213.549 44.4817 212.758 42.9072 212.388 41.2185C212.017 39.5298 212.079 37.7784 212.566 36.1181C213.054 34.4578 213.953 32.9394 215.185 31.6962L215.237 31.6456C215.324 31.557 215.41 31.4684 215.501 31.3839C215.502 31.3839 215.503 31.3838 215.503 31.3836C215.504 31.3834 215.504 31.3831 215.504 31.3827C215.505 31.3823 215.505 31.3819 215.505 31.3813C215.506 31.3808 215.506 31.3803 215.506 31.3797C215.618 31.2784 215.731 31.1772 215.848 31.0801C217.415 29.7437 219.344 28.875 221.405 28.5779C223.466 28.2808 225.572 28.5679 227.469 29.4049C229.367 30.242 230.976 31.5934 232.105 33.2974C233.234 35.0014 233.834 36.9858 233.833 39.013V39.013Z" fill="#2F2E41"/>
<path d="M220.32 50.2995C225.341 50.2995 229.411 46.3391 229.411 41.4537C229.411 36.5683 225.341 32.608 220.32 32.608C215.299 32.608 211.228 36.5683 211.228 41.4537C211.228 46.3391 215.299 50.2995 220.32 50.2995Z" fill="#9E616A"/>
<path d="M229.974 43.9764L228.468 43.7175C227.626 43.5687 226.851 43.1733 226.247 42.5843C225.642 41.9954 225.237 41.2409 225.085 40.4217L223.615 42.8185L223.551 42.8392C220.049 43.9705 216.406 43.6322 212.414 41.8062C211.273 41.2796 210.166 40.6857 209.099 40.0279L209.021 39.9801L209.014 39.8901C208.811 37.0125 209.474 34.6085 210.883 33.1209C211.424 32.5612 212.081 32.119 212.81 31.8234C213.539 31.5278 214.323 31.3854 215.113 31.4055C215.169 31.3912 215.221 31.3635 215.263 31.3248C215.283 31.3103 215.304 31.296 215.324 31.2823V31.2675L215.428 31.2196C215.653 31.117 215.881 31.0188 216.11 30.9289C217.909 30.2514 219.868 30.0814 221.762 30.4385C223.655 30.7957 225.407 31.6655 226.816 32.948C229.616 35.5493 230.901 39.9146 230.012 43.8111L229.974 43.9764Z" fill="#2F2E41"/>
<path d="M249.15 51.513C246.056 49.9593 250.035 44.3203 249.236 41.0234C248.436 37.7264 242.679 36.666 242.312 33.2973C241.945 29.9286 241.082 26.4542 238.797 23.898C237.337 22.2646 235.186 21.0588 232.972 21.2634C232.222 21.3326 231.497 21.5582 230.845 21.9247C230.194 22.2912 229.631 22.7901 229.195 23.3873C228.759 23.9846 228.461 24.6662 228.321 25.3857C228.18 26.1052 228.2 26.8457 228.381 27.5568C227.75 26.6875 226.118 26.8759 225.714 27.8648C225.355 28.7439 226.148 29.8087 227.082 29.8865C228.304 31.3544 229.703 32.9123 231.617 33.2084C231.922 33.2766 232.238 33.2764 232.543 33.2079C232.848 33.1395 233.133 33.0045 233.376 32.8132C233.827 32.3925 233.862 31.5513 233.328 31.2369C235.733 32.1666 237.143 34.6969 237.5 37.191C237.857 39.6851 237.363 42.2086 237.038 44.7068C236.712 47.205 236.572 49.8329 237.579 52.1528C238.768 54.8937 241.507 56.8582 244.495 57.4882C247.484 58.1182 250.667 57.5025 253.372 56.1153C256.077 54.7279 258.333 52.6101 260.176 50.2357C257.002 52.4289 252.61 53.2505 249.15 51.513Z" fill="#2F2E41"/>
<path d="M229.587 43.7305C229.587 43.7305 226.894 33.9495 215.35 31.692C215.337 31.6878 215.293 31.6709 215.237 31.6456C215.202 31.6245 215.159 31.6034 215.115 31.5823C215.246 31.5105 215.371 31.4473 215.501 31.3839C215.502 31.384 215.503 31.3838 215.503 31.3836C215.504 31.3834 215.504 31.3831 215.504 31.3827C215.505 31.3823 215.505 31.3819 215.505 31.3813C215.506 31.3808 215.506 31.3803 215.506 31.3797C215.618 31.2785 215.731 31.1772 215.848 31.0801L216.178 31.0928C216.178 31.0928 227.762 29.3079 229.587 43.7305Z" fill="#FD6584"/>
<path opacity="0.2" d="M223.558 75.1153L217.037 82.4653L206.264 79.3698L218.009 84.636L223.558 75.1153Z" fill="black"/>
<path d="M262.694 209.089L162.446 209.198C162.331 209.197 162.222 209.153 162.141 209.074C162.06 208.995 162.014 208.888 162.014 208.777C162.014 208.665 162.06 208.558 162.141 208.479C162.222 208.4 162.331 208.356 162.446 208.355L262.694 208.247C262.809 208.247 262.919 208.291 263 208.37C263.081 208.449 263.127 208.556 263.127 208.668C263.127 208.78 263.081 208.887 263 208.966C262.919 209.045 262.809 209.089 262.694 209.089V209.089Z" fill="#CACACA"/>
<path d="M267.094 143.636C262.4 143.636 257.255 143.464 251.659 143.119C222.716 141.33 185.226 135.113 146.094 125.612C106.963 116.111 70.8651 104.462 44.4515 92.81C31.5846 87.1339 21.7093 81.7611 15.1003 76.8404C8.10312 71.6311 5.04245 67.0904 6.00297 63.3449C7.87451 56.048 24.4461 54.4516 38.0184 54.3974L38.023 55.4585C19.3846 55.533 8.38894 58.4251 7.06132 63.6019C5.37015 70.1953 19.1626 80.4888 44.9018 91.8435C71.2574 103.47 107.289 115.097 146.358 124.583C185.428 134.068 222.849 140.275 251.729 142.06C279.932 143.803 297.079 141.02 298.77 134.427C300.174 128.953 290.918 120.888 272.707 111.719L273.208 110.776C286.44 117.439 301.8 126.995 299.828 134.684C298.867 138.429 293.973 141.038 285.281 142.438C280.326 143.236 274.24 143.636 267.094 143.636Z" fill="#00BFA6"/>
</g>
<defs>
<clipPath id="clip0_2_29649">
<rect width="300" height="209.198" fill="white"/>
</clipPath>
</defs>
</svg>
